<?xml version="1.0" encoding="UTF-8"?>
<svg xmlns="http://www.w3.org/2000/svg" viewBox="0 0 700 380" width="700" height="380">
  <defs>
    <linearGradient id="bgGrad" x1="0%" y1="0%" x2="100%" y2="100%">
      <stop offset="0%" style="stop-color:#0d1117"/>
      <stop offset="100%" style="stop-color:#161b22"/>
    </linearGradient>
    <filter id="glow">
      <feGaussianBlur stdDeviation="2" result="blur"/>
      <feMerge><feMergeNode in="blur"/><feMergeNode in="SourceGraphic"/></feMerge>
    </filter>
  </defs>
  <rect width="700" height="380" fill="url(#bgGrad)"/>
  <g filter="url(#glow)">
  <rect x="20" y="35" width="100" height="55" rx="6" fill="#161b22" stroke="#30363d"/>
  <g transform="translate(29, 44) scale(0.75)"><path d="M12 15a3 3 0 1 0 0-6 3 3 0 0 0 0 6zM2 12a10 10 0 1 0 20 0 10 10 0 0 0-20 0M12 6V2M6 12H2M12 18v4M18 12h4" fill="none" stroke="#39c5cf" stroke-width="1.5" stroke-linecap="round" stroke-linejoin="round"/></g>
  <text x="58" y="55" fill="#8b949e" font-size="9" font-family="'SF Mono', 'Fira Code', Consolas, monospace">Throughput</text>
  <text x="30" y="79" fill="#39c5cf" font-size="18" font-weight="600" font-family="'SF Mono', 'Fira Code', Consolas, monospace">50,000<tspan fill="#8b949e" font-size="10">tps</tspan><tspan fill="#3fb950" font-size="12"> ↑</tspan></text>

  <rect x="130" y="35" width="100" height="55" rx="6" fill="#161b22" stroke="#30363d"/>
  <g transform="translate(139, 44) scale(0.75)"><path d="M12 15a3 3 0 1 0 0-6 3 3 0 0 0 0 6zM2 12a10 10 0 1 0 20 0 10 10 0 0 0-20 0M12 6V2M6 12H2M12 18v4M18 12h4" fill="none" stroke="#39c5cf" stroke-width="1.5" stroke-linecap="round" stroke-linejoin="round"/></g>
  <text x="168" y="55" fill="#8b949e" font-size="9" font-family="'SF Mono', 'Fira Code', Consolas, monospace">ML Latency</text>
  <text x="140" y="79" fill="#39c5cf" font-size="18" font-weight="600" font-family="'SF Mono', 'Fira Code', Consolas, monospace">4.8<tspan fill="#8b949e" font-size="10">ms</tspan><tspan fill="#f85149" font-size="12"> ↓</tspan></text>

  <rect x="240" y="35" width="100" height="55" rx="6" fill="#161b22" stroke="#30363d"/>
  <g transform="translate(249, 44) scale(0.75)"><path d="M12 15a3 3 0 1 0 0-6 3 3 0 0 0 0 6zM2 12a10 10 0 1 0 20 0 10 10 0 0 0-20 0M12 6V2M6 12H2M12 18v4M18 12h4" fill="none" stroke="#39c5cf" stroke-width="1.5" stroke-linecap="round" stroke-linejoin="round"/></g>
  <text x="278" y="55" fill="#8b949e" font-size="9" font-family="'SF Mono', 'Fira Code', Consolas, monospace">Exactly-once</text>
  <text x="250" y="79" fill="#39c5cf" font-size="18" font-weight="600" font-family="'SF Mono', 'Fira Code', Consolas, monospace">Yes<tspan fill="#8b949e" font-size="10">n/a</tspan></text>

  <rect x="20" y="30" width="200" height="90" rx="8" fill="#161b22" stroke="#30363d"/>
  <rect x="20" y="30" width="200" height="24" rx="8" fill="#21262d"/>
  <circle cx="34" cy="42" r="5" fill="#f85149" opacity="0.8"/>
  <circle cx="50" cy="42" r="5" fill="#d29922" opacity="0.8"/>
  <circle cx="66" cy="42" r="5" fill="#3fb950" opacity="0.8"/>
  <text x="120" y="46" text-anchor="middle" fill="#6e7681" font-size="10" font-family="'SF Mono', 'Fira Code', Consolas, monospace">code.ts</text>
  <text x="32" y="72" fill="#39c5cf" font-size="11" font-family="'SF Mono', 'Fira Code', Consolas, monospace">XGROUP CREATE mystream f_group $</text><text x="32" y="87" fill="#e6edf3" font-size="11" font-family="'SF Mono', 'Fira Code', Consolas, monospace">OK</text><text x="32" y="102" fill="#e6edf3" font-size="11" font-family="'SF Mono', 'Fira Code', Consolas, monospace">XREADGROUP GROUP f_group M s</text>

  <rect x="240" y="30" width="200" height="90" rx="8" fill="#0d1117" stroke="#3fb950" stroke-width="1.5"/>
  <rect x="240" y="30" width="200" height="22" rx="8" fill="#3fb950" opacity="0.15"/>
  <g transform="translate(249, 34) scale(0.5833333333333334)"><path d="M4 17l6-6-6-6M12 19h8" fill="none" stroke="#3fb950" stroke-width="1.5" stroke-linecap="round" stroke-linejoin="round"/></g>
  <text x="270" y="45" fill="#3fb950" font-size="10" font-family="'SF Mono', 'Fira Code', Consolas, monospace">terminal</text>
  <text x="252" y="68" fill="#e6edf3" font-size="11" font-family="'SF Mono', 'Fira Code', Consolas, monospace">XGROUP CREATE mystream f_group $</text><text x="252" y="83" fill="#3fb950" font-size="11" font-family="'SF Mono', 'Fira Code', Consolas, monospace">OK</text><text x="252" y="98" fill="#e6edf3" font-size="11" font-family="'SF Mono', 'Fira Code', Consolas, monospace">XREADGROUP GROUP f_group M s</text><text x="252" y="113" fill="#39c5cf" font-size="11" font-family="'SF Mono', 'Fira Code', Consolas, monospace">data: 2-0</text>

  <circle cx="530" cy="70" r="33" fill="#39c5cf" opacity="0.1"/>
  <circle cx="530" cy="70" r="25" fill="#161b22" stroke="#39c5cf" stroke-width="2"/>
  <g transform="translate(517.5, 57.5) scale(1.0416666666666667)"><path d="M12 2L2 7l10 5 10-5-10-5zM2 17l10 5 10-5M2 12l10 5 10-5" fill="none" stroke="#39c5cf" stroke-width="1.5" stroke-linecap="round" stroke-linejoin="round"/></g>

  <rect x="-5.5" y="152" width="111" height="56" rx="8" fill="#161b22" stroke="#3fb950" stroke-width="1.5"/>
  <g transform="translate(40, 164) scale(0.8333333333333334)"><path d="M2 9h20M2 15h20M6 9v6M18 9v6M4 5h16a2 2 0 0 1 2 2v10a2 2 0 0 1-2 2H4a2 2 0 0 1-2-2V7a2 2 0 0 1 2-2z" fill="none" stroke="#3fb950" stroke-width="1.5" stroke-linecap="round" stroke-linejoin="round"/></g>
  <text x="50" y="198" text-anchor="middle" fill="#8b949e" font-size="10" font-family="'SF Mono', 'Fira Code', Consolas, monospace">Redis Streams</text>

  <rect x="124" y="152" width="132" height="56" rx="8" fill="#161b22" stroke="#a371f7" stroke-width="1.5"/>
  <g transform="translate(180, 164) scale(0.8333333333333334)"><path d="M21 5c0 1.1-4 2-9 2s-9-.9-9-2m18 0c0-1.1-4-2-9-2s-9 .9-9 2m18 0v14c0 1.1-4 2-9 2s-9-.9-9-2V5m18 7c0 1.1-4 2-9 2s-9-.9-9-2" fill="none" stroke="#a371f7" stroke-width="1.5" stroke-linecap="round" stroke-linejoin="round"/></g>
  <text x="190" y="198" text-anchor="middle" fill="#8b949e" font-size="10" font-family="'SF Mono', 'Fira Code', Consolas, monospace">Redis Streams DB</text>

  <rect x="305" y="152" width="90" height="56" rx="8" fill="#161b22" stroke="#3fb950" stroke-width="1.5"/>
  <g transform="translate(340, 164) scale(0.8333333333333334)"><path d="M2 9h20M2 15h20M6 9v6M18 9v6M4 5h16a2 2 0 0 1 2 2v10a2 2 0 0 1-2 2H4a2 2 0 0 1-2-2V7a2 2 0 0 1 2-2z" fill="none" stroke="#3fb950" stroke-width="1.5" stroke-linecap="round" stroke-linejoin="round"/></g>
  <text x="350" y="198" text-anchor="middle" fill="#8b949e" font-size="10" font-family="'SF Mono', 'Fira Code', Consolas, monospace">ML Scorers</text>

  <rect x="531.5" y="152" width="97" height="56" rx="8" fill="#161b22" stroke="#39c5cf" stroke-width="1.5"/>
  <g transform="translate(570, 164) scale(0.8333333333333334)"><path d="M17.5 19H9a7 7 0 1 1 6.71-9h1.79a4.5 4.5 0 1 1 0 9z" fill="none" stroke="#39c5cf" stroke-width="1.5" stroke-linecap="round" stroke-linejoin="round"/></g>
  <text x="580" y="198" text-anchor="middle" fill="#8b949e" font-size="10" font-family="'SF Mono', 'Fira Code', Consolas, monospace">Cloud Infra</text>

  <line x1="250" y1="180" x2="450" y2="180" stroke="#39c5cf" stroke-width="1.5" opacity="0.3"/>
  <circle r="3" fill="#39c5cf">
    <animate attributeName="cx" values="250;450" dur="2.2s" repeatCount="indefinite"/>
    <animate attributeName="cy" values="180;180" dur="2.2s" repeatCount="indefinite"/>
    <animate attributeName="opacity" values="0;1;1;0" dur="2.2s" repeatCount="indefinite"/>
  </circle>
  <circle r="2" fill="#39c5cf" opacity="0.6">
    <animate attributeName="cx" values="250;450" dur="2.4s" begin="0.6s" repeatCount="indefinite"/>
    <animate attributeName="cy" values="180;180" dur="2.4s" begin="0.6s" repeatCount="indefinite"/>
    <animate attributeName="opacity" values="0;0.7;0.7;0" dur="2.4s" begin="0.6s" repeatCount="indefinite"/>
  </circle>
  <rect x="324.5" y="170" width="51" height="20" rx="4" fill="#161b22" stroke="#39c5cf"/><text x="350" y="184" text-anchor="middle" fill="#39c5cf" font-size="10" font-family="'SF Mono', 'Fira Code', Consolas, monospace">score</text>

  <line x1="250" y1="180" x2="450" y2="180" stroke="#39c5cf" stroke-width="1.5" opacity="0.3"/>
  <circle r="3" fill="#39c5cf">
    <animate attributeName="cx" values="250;450" dur="2.1s" repeatCount="indefinite"/>
    <animate attributeName="cy" values="180;180" dur="2.1s" repeatCount="indefinite"/>
    <animate attributeName="opacity" values="0;1;1;0" dur="2.1s" repeatCount="indefinite"/>
  </circle>
  <circle r="2" fill="#39c5cf" opacity="0.6">
    <animate attributeName="cx" values="250;450" dur="2.3s" begin="0.6s" repeatCount="indefinite"/>
    <animate attributeName="cy" values="180;180" dur="2.3s" begin="0.6s" repeatCount="indefinite"/>
    <animate attributeName="opacity" values="0;0.7;0.7;0" dur="2.3s" begin="0.6s" repeatCount="indefinite"/>
  </circle>
  <rect x="317.5" y="170" width="65" height="20" rx="4" fill="#161b22" stroke="#39c5cf"/><text x="350" y="184" text-anchor="middle" fill="#39c5cf" font-size="10" font-family="'SF Mono', 'Fira Code', Consolas, monospace">publish</text>

  <line x1="250" y1="180" x2="450" y2="180" stroke="#39c5cf" stroke-width="1.5" opacity="0.3"/>
  <circle r="3" fill="#39c5cf">
    <animate attributeName="cx" values="250;450" dur="2.0s" repeatCount="indefinite"/>
    <animate attributeName="cy" values="180;180" dur="2.0s" repeatCount="indefinite"/>
    <animate attributeName="opacity" values="0;1;1;0" dur="2.0s" repeatCount="indefinite"/>
  </circle>
  <circle r="2" fill="#39c5cf" opacity="0.6">
    <animate attributeName="cx" values="250;450" dur="2.6s" begin="0.6s" repeatCount="indefinite"/>
    <animate attributeName="cy" values="180;180" dur="2.6s" begin="0.6s" repeatCount="indefinite"/>
    <animate attributeName="opacity" values="0;0.7;0.7;0" dur="2.6s" begin="0.6s" repeatCount="indefinite"/>
  </circle>
  <rect x="328" y="170" width="44" height="20" rx="4" fill="#161b22" stroke="#39c5cf"/><text x="350" y="184" text-anchor="middle" fill="#39c5cf" font-size="10" font-family="'SF Mono', 'Fira Code', Consolas, monospace">feed</text>

  <rect x="20" y="260" width="171" height="24" rx="12" fill="#161b22" stroke="#39c5cf"/>
  <circle cx="32" cy="272" r="4" fill="#39c5cf"/>
  <text x="42" y="276" fill="#e6edf3" font-size="10" font-family="'SF Mono', 'Fira Code', Consolas, monospace">Problem: 50k tps spike</text>

  <rect x="20" y="290" width="203.5" height="24" rx="12" fill="#161b22" stroke="#d29922"/>
  <circle cx="32" cy="302" r="4" fill="#d29922"/>
  <text x="42" y="306" fill="#e6edf3" font-size="10" font-family="'SF Mono', 'Fira Code', Consolas, monospace">Mitigation: consumer groups</text>

  <rect x="20" y="320" width="223" height="24" rx="12" fill="#161b22" stroke="#3fb950"/>
  <circle cx="32" cy="332" r="4" fill="#3fb950"/>
  <text x="42" y="336" fill="#e6edf3" font-size="10" font-family="'SF Mono', 'Fira Code', Consolas, monospace">Plan: scale with Redis Streams</text>
<g transform="translate(585, 265) scale(1.25)"><path d="M13 2L3 14h9l-1 8 10-12h-9l1-8z" fill="none" stroke="#39c5cf" stroke-width="1.5" stroke-linecap="round" stroke-linejoin="round"/></g>
<g transform="translate(585, 265) scale(1.25)"><path d="M12 22s8-4 8-10V5l-8-3-8 3v7c0 6 8 10 8 10zM9 12l2 2 4-4" fill="none" stroke="#39c5cf" stroke-width="1.5" stroke-linecap="round" stroke-linejoin="round"/></g>

  <rect x="203" y="348" width="294" height="26" rx="6" fill="#161b22" stroke="#30363d"/>
  <text x="350" y="366" text-anchor="middle" fill="#39c5cf" font-size="12" font-family="'SF Mono', 'Fira Code', Consolas, monospace">Opening: problem setup and challenge</text></g>
</svg>