<?xml version="1.0" encoding="UTF-8"?>
<svg xmlns="http://www.w3.org/2000/svg" viewBox="0 0 700 380" width="700" height="380">
  <defs>
    <linearGradient id="bgGrad" x1="0%" y1="0%" x2="100%" y2="100%">
      <stop offset="0%" style="stop-color:#0d1117"/>
      <stop offset="100%" style="stop-color:#161b22"/>
    </linearGradient>
    <filter id="glow">
      <feGaussianBlur stdDeviation="2" result="blur"/>
      <feMerge><feMergeNode in="blur"/><feMergeNode in="SourceGraphic"/></feMerge>
    </filter>
  </defs>
  <rect width="700" height="380" fill="url(#bgGrad)"/>
  <g filter="url(#glow)">
  <rect x="20" y="100" width="200" height="95" rx="8" fill="#161b22" stroke="#30363d"/>
  <rect x="20" y="100" width="200" height="24" rx="8" fill="#21262d"/>
  <circle cx="34" cy="112" r="5" fill="#f85149" opacity="0.8"/>
  <circle cx="50" cy="112" r="5" fill="#d29922" opacity="0.8"/>
  <circle cx="66" cy="112" r="5" fill="#3fb950" opacity="0.8"/>
  <text x="120" y="116" text-anchor="middle" fill="#6e7681" font-size="10" font-family="'SF Mono', 'Fira Code', Consolas, monospace">code.ts</text>
  <text x="32" y="142" fill="#39c5cf" font-size="11" font-family="'SF Mono', 'Fira Code', Consolas, monospace">kafka.bootstrap.servers = br</text><text x="32" y="157" fill="#e6edf3" font-size="11" font-family="'SF Mono', 'Fira Code', Consolas, monospace">CREATE MATERIALIZED VIEW mv </text><text x="32" y="172" fill="#e6edf3" font-size="11" font-family="'SF Mono', 'Fira Code', Consolas, monospace">latency_ms = 120</text>

  <rect x="240" y="100" width="200" height="95" rx="8" fill="#0d1117" stroke="#3fb950" stroke-width="1.5"/>
  <rect x="240" y="100" width="200" height="22" rx="8" fill="#3fb950" opacity="0.15"/>
  <g transform="translate(249, 104) scale(0.5833333333333334)"><path d="M4 17l6-6-6-6M12 19h8" fill="none" stroke="#3fb950" stroke-width="1.5" stroke-linecap="round" stroke-linejoin="round"/></g>
  <text x="270" y="115" fill="#3fb950" font-size="10" font-family="'SF Mono', 'Fira Code', Consolas, monospace">terminal</text>
  <text x="252" y="138" fill="#e6edf3" font-size="11" font-family="'SF Mono', 'Fira Code', Consolas, monospace">$ kafka-console-consumer --boo</text><text x="252" y="153" fill="#39c5cf" font-size="11" font-family="'SF Mono', 'Fira Code', Consolas, monospace">INFO Connecting to broker1:909</text><text x="252" y="168" fill="#3fb950" font-size="11" font-family="'SF Mono', 'Fira Code', Consolas, monospace">latency: avg 120 ms</text><text x="252" y="183" fill="#39c5cf" font-size="11" font-family="'SF Mono', 'Fira Code', Consolas, monospace">&gt; processed 2.3k events/s</text>

  <rect x="470" y="30" width="100" height="55" rx="6" fill="#161b22" stroke="#30363d"/>
  <g transform="translate(479, 39) scale(0.75)"><path d="M12 22c5.523 0 10-4.477 10-10S17.523 2 12 2 2 6.477 2 12s4.477 10 10 10zM12 6v6l4 2" fill="none" stroke="#39c5cf" stroke-width="1.5" stroke-linecap="round" stroke-linejoin="round"/></g>
  <text x="508" y="50" fill="#8b949e" font-size="9" font-family="'SF Mono', 'Fira Code', Consolas, monospace">latency</text>
  <text x="480" y="74" fill="#39c5cf" font-size="18" font-weight="600" font-family="'SF Mono', 'Fira Code', Consolas, monospace">120<tspan fill="#8b949e" font-size="10">ms</tspan><tspan fill="#f85149" font-size="12"> ↓</tspan></text>

  <rect x="580" y="30" width="100" height="55" rx="6" fill="#161b22" stroke="#30363d"/>
  <g transform="translate(589, 39) scale(0.75)"><path d="M12 15a3 3 0 1 0 0-6 3 3 0 0 0 0 6zM2 12a10 10 0 1 0 20 0 10 10 0 0 0-20 0M12 6V2M6 12H2M12 18v4M18 12h4" fill="none" stroke="#39c5cf" stroke-width="1.5" stroke-linecap="round" stroke-linejoin="round"/></g>
  <text x="618" y="50" fill="#8b949e" font-size="9" font-family="'SF Mono', 'Fira Code', Consolas, monospace">throughput</text>
  <text x="590" y="74" fill="#39c5cf" font-size="18" font-weight="600" font-family="'SF Mono', 'Fira Code', Consolas, monospace">2.3k<tspan fill="#8b949e" font-size="10">msgs/s</tspan><tspan fill="#3fb950" font-size="12"> ↑</tspan></text>

  <rect x="48" y="192" width="104" height="56" rx="8" fill="#161b22" stroke="#3fb950" stroke-width="1.5"/>
  <g transform="translate(90, 204) scale(0.8333333333333334)"><path d="M2 9h20M2 15h20M6 9v6M18 9v6M4 5h16a2 2 0 0 1 2 2v10a2 2 0 0 1-2 2H4a2 2 0 0 1-2-2V7a2 2 0 0 1 2-2z" fill="none" stroke="#3fb950" stroke-width="1.5" stroke-linecap="round" stroke-linejoin="round"/></g>
  <text x="100" y="238" text-anchor="middle" fill="#8b949e" font-size="10" font-family="'SF Mono', 'Fira Code', Consolas, monospace">Kafka Broker</text>

  <rect x="208" y="192" width="104" height="56" rx="8" fill="#161b22" stroke="#d29922" stroke-width="1.5"/>
  <g transform="translate(250, 204) scale(0.8333333333333334)"><path d="M2 9h20M2 15h20M6 9v6M18 9v6M4 5h16a2 2 0 0 1 2 2v10a2 2 0 0 1-2 2H4a2 2 0 0 1-2-2V7a2 2 0 0 1 2-2z" fill="none" stroke="#d29922" stroke-width="1.5" stroke-linecap="round" stroke-linejoin="round"/></g>
  <text x="260" y="238" text-anchor="middle" fill="#8b949e" font-size="10" font-family="'SF Mono', 'Fira Code', Consolas, monospace">Stream Proce</text>

  <rect x="375" y="192" width="90" height="56" rx="8" fill="#161b22" stroke="#3fb950" stroke-width="1.5"/>
  <g transform="translate(410, 204) scale(0.8333333333333334)"><path d="M2 9h20M2 15h20M6 9v6M18 9v6M4 5h16a2 2 0 0 1 2 2v10a2 2 0 0 1-2 2H4a2 2 0 0 1-2-2V7a2 2 0 0 1 2-2z" fill="none" stroke="#3fb950" stroke-width="1.5" stroke-linecap="round" stroke-linejoin="round"/></g>
  <text x="420" y="238" text-anchor="middle" fill="#8b949e" font-size="10" font-family="'SF Mono', 'Fira Code', Consolas, monospace">ClickHouse</text>

  <rect x="535" y="192" width="90" height="56" rx="8" fill="#161b22" stroke="#a371f7" stroke-width="1.5"/>
  <g transform="translate(570, 204) scale(0.8333333333333334)"><path d="M21 5c0 1.1-4 2-9 2s-9-.9-9-2m18 0c0-1.1-4-2-9-2s-9 .9-9 2m18 0v14c0 1.1-4 2-9 2s-9-.9-9-2V5m18 7c0 1.1-4 2-9 2s-9-.9-9-2" fill="none" stroke="#a371f7" stroke-width="1.5" stroke-linecap="round" stroke-linejoin="round"/></g>
  <text x="580" y="238" text-anchor="middle" fill="#8b949e" font-size="10" font-family="'SF Mono', 'Fira Code', Consolas, monospace">ClickHouse</text>

  <line x1="140" y1="220" x2="220" y2="220" stroke="#39c5cf" stroke-width="1.5" opacity="0.3"/>
  <circle r="3" fill="#39c5cf">
    <animate attributeName="cx" values="140;220" dur="1.9s" repeatCount="indefinite"/>
    <animate attributeName="cy" values="220;220" dur="1.9s" repeatCount="indefinite"/>
    <animate attributeName="opacity" values="0;1;1;0" dur="1.9s" repeatCount="indefinite"/>
  </circle>
  <circle r="2" fill="#39c5cf" opacity="0.6">
    <animate attributeName="cx" values="140;220" dur="2.2s" begin="0.6s" repeatCount="indefinite"/>
    <animate attributeName="cy" values="220;220" dur="2.2s" begin="0.6s" repeatCount="indefinite"/>
    <animate attributeName="opacity" values="0;0.7;0.7;0" dur="2.2s" begin="0.6s" repeatCount="indefinite"/>
  </circle>
  <rect x="151" y="210" width="58" height="20" rx="4" fill="#161b22" stroke="#39c5cf"/><text x="180" y="224" text-anchor="middle" fill="#39c5cf" font-size="10" font-family="'SF Mono', 'Fira Code', Consolas, monospace">ingest</text>

  <line x1="300" y1="220" x2="380" y2="220" stroke="#39c5cf" stroke-width="1.5" opacity="0.3"/>
  <circle r="3" fill="#39c5cf">
    <animate attributeName="cx" values="300;380" dur="2.2s" repeatCount="indefinite"/>
    <animate attributeName="cy" values="220;220" dur="2.2s" repeatCount="indefinite"/>
    <animate attributeName="opacity" values="0;1;1;0" dur="2.2s" repeatCount="indefinite"/>
  </circle>
  <circle r="2" fill="#39c5cf" opacity="0.6">
    <animate attributeName="cx" values="300;380" dur="2.3s" begin="0.6s" repeatCount="indefinite"/>
    <animate attributeName="cy" values="220;220" dur="2.3s" begin="0.6s" repeatCount="indefinite"/>
    <animate attributeName="opacity" values="0;0.7;0.7;0" dur="2.3s" begin="0.6s" repeatCount="indefinite"/>
  </circle>
  <rect x="318" y="210" width="44" height="20" rx="4" fill="#161b22" stroke="#39c5cf"/><text x="340" y="224" text-anchor="middle" fill="#39c5cf" font-size="10" font-family="'SF Mono', 'Fira Code', Consolas, monospace">emit</text>

  <rect x="20" y="295" width="125.5" height="24" rx="12" fill="#161b22" stroke="#f85149"/>
  <circle cx="32" cy="307" r="4" fill="#f85149"/>
  <text x="42" y="311" fill="#e6edf3" font-size="10" font-family="'SF Mono', 'Fira Code', Consolas, monospace">data lag detect</text>

  <rect x="180" y="295" width="125.5" height="24" rx="12" fill="#161b22" stroke="#d29922"/>
  <circle cx="192" cy="307" r="4" fill="#d29922"/>
  <text x="202" y="311" fill="#e6edf3" font-size="10" font-family="'SF Mono', 'Fira Code', Consolas, monospace">ingestion recov</text>

  <rect x="340" y="295" width="125.5" height="24" rx="12" fill="#161b22" stroke="#3fb950"/>
  <circle cx="352" cy="307" r="4" fill="#3fb950"/>
  <text x="362" y="311" fill="#e6edf3" font-size="10" font-family="'SF Mono', 'Fira Code', Consolas, monospace">pipeline health</text>

  <rect x="206.75" y="348" width="286.5" height="26" rx="6" fill="#161b22" stroke="#30363d"/>
  <text x="350" y="366" text-anchor="middle" fill="#39c5cf" font-size="12" font-family="'SF Mono', 'Fira Code', Consolas, monospace">Opening: identify bottleneck and ch</text></g>
</svg>