<?xml version="1.0" encoding="UTF-8"?>
<svg xmlns="http://www.w3.org/2000/svg" viewBox="0 0 700 380" width="700" height="380">
  <defs>
    <linearGradient id="bgGrad" x1="0%" y1="0%" x2="100%" y2="100%">
      <stop offset="0%" stop-color="#0d1117"/>
      <stop offset="100%" stop-color="#161b22"/>
    </linearGradient>
  </defs>
  <rect width="100%" height="100%" fill="url(#bgGrad)"/>
  <g opacity="0.02" stroke="#f0f6fc"><line x1="0" y1="0" x2="0" y2="380"/><line x1="50" y1="0" x2="50" y2="380"/><line x1="100" y1="0" x2="100" y2="380"/><line x1="150" y1="0" x2="150" y2="380"/><line x1="200" y1="0" x2="200" y2="380"/><line x1="250" y1="0" x2="250" y2="380"/><line x1="300" y1="0" x2="300" y2="380"/><line x1="350" y1="0" x2="350" y2="380"/><line x1="400" y1="0" x2="400" y2="380"/><line x1="450" y1="0" x2="450" y2="380"/><line x1="500" y1="0" x2="500" y2="380"/><line x1="550" y1="0" x2="550" y2="380"/><line x1="600" y1="0" x2="600" y2="380"/><line x1="650" y1="0" x2="650" y2="380"/><line x1="700" y1="0" x2="700" y2="380"/><line x1="0" y1="0" x2="700" y2="0"/><line x1="0" y1="50" x2="700" y2="50"/><line x1="0" y1="100" x2="700" y2="100"/><line x1="0" y1="150" x2="700" y2="150"/><line x1="0" y1="200" x2="700" y2="200"/><line x1="0" y1="250" x2="700" y2="250"/><line x1="0" y1="300" x2="700" y2="300"/><line x1="0" y1="350" x2="700" y2="350"/></g>
  <ellipse cx="105" cy="95" rx="120" ry="80" fill="#58a6ff" opacity="0.03"/>
  <ellipse cx="595" cy="285" rx="100" ry="70" fill="#a371f7" opacity="0.03"/>
  
    
  <g transform="translate(350, 50) scale(1.5)">
    <path d="M-45,12 Q-55,-5 -35,-18 Q-20,-32 5,-25 Q30,-32 42,-15 Q58,-2 48,12 Q38,22 0,22 Q-38,22 -45,12" fill="#79c0ff" fill-opacity="0.12" stroke="#79c0ff" stroke-width="1.5" stroke-opacity="0.4"/>
    <text x="0" y="5" text-anchor="middle" fill="#79c0ff" font-size="10" font-weight="500">Load Balancer</text>
  </g>
    
    <g transform="translate(100, 260)">
      <path d="M0,-70 L38.97,-92.5 L69.28,-75 L30.31,-52.5 Z" fill="#8ec5ff" opacity="0.9"/>
      <path d="M0,-70 L30.31,-52.5 L30.31,17.5 L0,0 Z" fill="#58a6ff" opacity="0.85"/>
      <path d="M30.31,-52.5 L69.28,-75 L69.28,-5 L30.31,17.5 Z" fill="#3d7cc9" opacity="0.75"/>
      <circle cx="9.093" cy="-56" r="4" fill="#3fb950"><animate attributeName="opacity" values="1;0.4;1" dur="1.5s" repeatCount="indefinite"/></circle>
      <circle cx="9.093" cy="-42" r="4" fill="#3fb950"><animate attributeName="opacity" values="1;0.4;1" dur="2s" repeatCount="indefinite"/></circle>
      <line x1="15.155" y1="-10.5" x2="27.279" y2="-10.5" stroke="#3d7cc9" stroke-width="2" opacity="0.5"/><line x1="15.155" y1="-17.5" x2="27.279" y2="-17.5" stroke="#3d7cc9" stroke-width="2" opacity="0.5"/><line x1="15.155" y1="-24.5" x2="27.279" y2="-24.5" stroke="#3d7cc9" stroke-width="2" opacity="0.5"/><line x1="15.155" y1="-31.5" x2="27.279" y2="-31.5" stroke="#3d7cc9" stroke-width="2" opacity="0.5"/>
      <text x="15.155" y="20" text-anchor="middle" fill="#8b949e" font-size="9" font-family="system-ui">node-1</text>
      <text x="18.186" y="-52.5" fill="#79c0ff" font-size="8" font-family="monospace">72%</text>
      
    </g>
    
    <g transform="translate(220, 260)">
      <path d="M0,-70 L38.97,-92.5 L69.28,-75 L30.31,-52.5 Z" fill="#8ec5ff" opacity="0.9"/>
      <path d="M0,-70 L30.31,-52.5 L30.31,17.5 L0,0 Z" fill="#58a6ff" opacity="0.85"/>
      <path d="M30.31,-52.5 L69.28,-75 L69.28,-5 L30.31,17.5 Z" fill="#3d7cc9" opacity="0.75"/>
      <circle cx="9.093" cy="-56" r="4" fill="#3fb950"><animate attributeName="opacity" values="1;0.4;1" dur="1.5s" repeatCount="indefinite"/></circle>
      <circle cx="9.093" cy="-42" r="4" fill="#3fb950"><animate attributeName="opacity" values="1;0.4;1" dur="2s" repeatCount="indefinite"/></circle>
      <line x1="15.155" y1="-10.5" x2="27.279" y2="-10.5" stroke="#3d7cc9" stroke-width="2" opacity="0.5"/><line x1="15.155" y1="-17.5" x2="27.279" y2="-17.5" stroke="#3d7cc9" stroke-width="2" opacity="0.5"/><line x1="15.155" y1="-24.5" x2="27.279" y2="-24.5" stroke="#3d7cc9" stroke-width="2" opacity="0.5"/><line x1="15.155" y1="-31.5" x2="27.279" y2="-31.5" stroke="#3d7cc9" stroke-width="2" opacity="0.5"/>
      <text x="15.155" y="20" text-anchor="middle" fill="#8b949e" font-size="9" font-family="system-ui">node-2</text>
      <text x="18.186" y="-52.5" fill="#79c0ff" font-size="8" font-family="monospace">68%</text>
      
    </g>
    
    <g transform="translate(340, 260)">
      <path d="M0,-70 L38.97,-92.5 L69.28,-75 L30.31,-52.5 Z" fill="#8ec5ff" opacity="0.9"/>
      <path d="M0,-70 L30.31,-52.5 L30.31,17.5 L0,0 Z" fill="#58a6ff" opacity="0.85"/>
      <path d="M30.31,-52.5 L69.28,-75 L69.28,-5 L30.31,17.5 Z" fill="#3d7cc9" opacity="0.75"/>
      <circle cx="9.093" cy="-56" r="4" fill="#3fb950"><animate attributeName="opacity" values="1;0.4;1" dur="1.5s" repeatCount="indefinite"/></circle>
      <circle cx="9.093" cy="-42" r="4" fill="#3fb950"><animate attributeName="opacity" values="1;0.4;1" dur="2s" repeatCount="indefinite"/></circle>
      <line x1="15.155" y1="-10.5" x2="27.279" y2="-10.5" stroke="#3d7cc9" stroke-width="2" opacity="0.5"/><line x1="15.155" y1="-17.5" x2="27.279" y2="-17.5" stroke="#3d7cc9" stroke-width="2" opacity="0.5"/><line x1="15.155" y1="-24.5" x2="27.279" y2="-24.5" stroke="#3d7cc9" stroke-width="2" opacity="0.5"/><line x1="15.155" y1="-31.5" x2="27.279" y2="-31.5" stroke="#3d7cc9" stroke-width="2" opacity="0.5"/>
      <text x="15.155" y="20" text-anchor="middle" fill="#8b949e" font-size="9" font-family="system-ui">node-3</text>
      <text x="18.186" y="-52.5" fill="#79c0ff" font-size="8" font-family="monospace">75%</text>
      
    </g>
    
    <g transform="translate(460, 260)">
      <path d="M0,-70 L38.97,-92.5 L69.28,-75 L30.31,-52.5 Z" fill="#c4a5f9" opacity="0.9"/>
      <path d="M0,-70 L30.31,-52.5 L30.31,17.5 L0,0 Z" fill="#a371f7" opacity="0.85"/>
      <path d="M30.31,-52.5 L69.28,-75 L69.28,-5 L30.31,17.5 Z" fill="#7c5cbf" opacity="0.75"/>
      <circle cx="9.093" cy="-56" r="4" fill="#d29922"><animate attributeName="opacity" values="1;0.4;1" dur="1.5s" repeatCount="indefinite"/></circle>
      <circle cx="9.093" cy="-42" r="4" fill="#d29922"><animate attributeName="opacity" values="1;0.4;1" dur="2s" repeatCount="indefinite"/></circle>
      <line x1="15.155" y1="-10.5" x2="27.279" y2="-10.5" stroke="#7c5cbf" stroke-width="2" opacity="0.5"/><line x1="15.155" y1="-17.5" x2="27.279" y2="-17.5" stroke="#7c5cbf" stroke-width="2" opacity="0.5"/><line x1="15.155" y1="-24.5" x2="27.279" y2="-24.5" stroke="#7c5cbf" stroke-width="2" opacity="0.5"/><line x1="15.155" y1="-31.5" x2="27.279" y2="-31.5" stroke="#7c5cbf" stroke-width="2" opacity="0.5"/>
      <text x="15.155" y="20" text-anchor="middle" fill="#8b949e" font-size="9" font-family="system-ui">node-4</text>
      <text x="18.186" y="-52.5" fill="#79c0ff" font-size="8" font-family="monospace">89%</text>
      
    </g>
    
    <g transform="translate(580, 260)">
      <path d="M0,-70 L38.97,-92.5 L69.28,-75 L30.31,-52.5 Z" fill="#7ee09a" opacity="0.9"/>
      <path d="M0,-70 L30.31,-52.5 L30.31,17.5 L0,0 Z" fill="#3fb950" opacity="0.85"/>
      <path d="M30.31,-52.5 L69.28,-75 L69.28,-5 L30.31,17.5 Z" fill="#2d9a46" opacity="0.75"/>
      <circle cx="9.093" cy="-56" r="4" fill="#3fb950"><animate attributeName="opacity" values="1;0.4;1" dur="1.5s" repeatCount="indefinite"/></circle>
      <circle cx="9.093" cy="-42" r="4" fill="#3fb950"><animate attributeName="opacity" values="1;0.4;1" dur="2s" repeatCount="indefinite"/></circle>
      <line x1="15.155" y1="-10.5" x2="27.279" y2="-10.5" stroke="#2d9a46" stroke-width="2" opacity="0.5"/><line x1="15.155" y1="-17.5" x2="27.279" y2="-17.5" stroke="#2d9a46" stroke-width="2" opacity="0.5"/><line x1="15.155" y1="-24.5" x2="27.279" y2="-24.5" stroke="#2d9a46" stroke-width="2" opacity="0.5"/><line x1="15.155" y1="-31.5" x2="27.279" y2="-31.5" stroke="#2d9a46" stroke-width="2" opacity="0.5"/>
      <text x="15.155" y="20" text-anchor="middle" fill="#8b949e" font-size="9" font-family="system-ui">new</text>
      <text x="18.186" y="-52.5" fill="#79c0ff" font-size="8" font-family="monospace">12%</text>
      
    </g>
    
    <path d="M160,190 L350,100" fill="none" stroke="#79c0ff" stroke-width="2" stroke-dasharray="6,4" opacity="0.6"><animate attributeName="stroke-dashoffset" from="0" to="-20" dur="1s" repeatCount="indefinite"/></path>
    <circle r="4" fill="#79c0ff"><animateMotion dur="2s" repeatCount="indefinite" path="M160,190 L350,100"/></circle>
    
    
    <path d="M280,190 L350,100" fill="none" stroke="#79c0ff" stroke-width="2" stroke-dasharray="6,4" opacity="0.6"><animate attributeName="stroke-dashoffset" from="0" to="-20" dur="1s" repeatCount="indefinite"/></path>
    <circle r="4" fill="#79c0ff"><animateMotion dur="2s" repeatCount="indefinite" path="M280,190 L350,100"/></circle>
    
    
    <path d="M400,190 L350,100" fill="none" stroke="#79c0ff" stroke-width="2" stroke-dasharray="6,4" opacity="0.6"><animate attributeName="stroke-dashoffset" from="0" to="-20" dur="1s" repeatCount="indefinite"/></path>
    <circle r="4" fill="#79c0ff"><animateMotion dur="2s" repeatCount="indefinite" path="M400,190 L350,100"/></circle>
    
    
    <path d="M520,190 L350,100" fill="none" stroke="#79c0ff" stroke-width="2" stroke-dasharray="6,4" opacity="0.6"><animate attributeName="stroke-dashoffset" from="0" to="-20" dur="1s" repeatCount="indefinite"/></path>
    <circle r="4" fill="#79c0ff"><animateMotion dur="2s" repeatCount="indefinite" path="M520,190 L350,100"/></circle>
    
    
    <g transform="translate(40, 60)">
      <rect width="90" height="55" rx="8" fill="#161b22" stroke="#30363d"/>
      <text x="10" y="18" fill="#8b949e" font-size="9" font-family="system-ui">RPS</text>
      <text x="10" y="38" fill="#58a6ff" font-size="18" font-weight="600" font-family="system-ui">12.4<tspan font-size="10" fill="#8b949e">K</tspan></text>
      <text x="75" y="38" fill="#3fb950" font-size="14">↑</text>
    </g>
    
    <g transform="translate(40, 125)">
      <rect width="90" height="55" rx="8" fill="#161b22" stroke="#30363d"/>
      <text x="10" y="18" fill="#8b949e" font-size="9" font-family="system-ui">Nodes</text>
      <text x="10" y="38" fill="#3fb950" font-size="18" font-weight="600" font-family="system-ui">5<tspan font-size="10" fill="#8b949e"></tspan></text>
      <text x="75" y="38" fill="#3fb950" font-size="14">↑</text>
    </g>
    
  <g transform="translate(150, 80)">
    <rect width="80" height="8" rx="4" fill="#21262d"/>
    <rect width="57.6" height="8" rx="4" fill="#58a6ff"/>
    <text x="88" y="7" fill="#8b949e" font-size="9">72%</text>
  </g>
    
  <g transform="translate(150, 100)">
    <rect width="80" height="8" rx="4" fill="#21262d"/>
    <rect width="54.4" height="8" rx="4" fill="#58a6ff"/>
    <text x="88" y="7" fill="#8b949e" font-size="9">68%</text>
  </g>
    
  <g transform="translate(150, 120)">
    <rect width="80" height="8" rx="4" fill="#21262d"/>
    <rect width="60" height="8" rx="4" fill="#58a6ff"/>
    <text x="88" y="7" fill="#8b949e" font-size="9">75%</text>
  </g>
    
  <g transform="translate(150, 140)">
    <rect width="80" height="8" rx="4" fill="#21262d"/>
    <rect width="71.2" height="8" rx="4" fill="#d29922"/>
    <text x="88" y="7" fill="#8b949e" font-size="9">89%</text>
  </g>
    
    <g>
      <line x1="540" y1="320" x2="591.6794970566216" y2="285.5470019622523" stroke="#3fb950" stroke-width="2"/>
      <polygon points="600,280 593.3956963167493,290.0191403253673 588.2114459753337,282.24276481324404" fill="#3fb950"/>
      <text x="570" y="292" text-anchor="middle" fill="#3fb950" font-size="9">+1 node</text>
    </g>
    <text x="350" y="330" text-anchor="middle" fill="#79c0ff" font-size="11" font-family="system-ui, -apple-system, sans-serif">Auto-scaling: 5 → 6 nodes</text>
  
</svg>