<?xml version="1.0" encoding="UTF-8"?>
<svg xmlns="http://www.w3.org/2000/svg" viewBox="0 0 700 380" width="700" height="380">
  <defs>
    <linearGradient id="bgGrad" x1="0%" y1="0%" x2="100%" y2="100%">
      <stop offset="0%" stop-color="#0d1117"/>
      <stop offset="100%" stop-color="#161b22"/>
    </linearGradient>
  </defs>
  <rect width="100%" height="100%" fill="url(#bgGrad)"/>
  <g opacity="0.02" stroke="#f0f6fc"><line x1="0" y1="0" x2="0" y2="380"/><line x1="50" y1="0" x2="50" y2="380"/><line x1="100" y1="0" x2="100" y2="380"/><line x1="150" y1="0" x2="150" y2="380"/><line x1="200" y1="0" x2="200" y2="380"/><line x1="250" y1="0" x2="250" y2="380"/><line x1="300" y1="0" x2="300" y2="380"/><line x1="350" y1="0" x2="350" y2="380"/><line x1="400" y1="0" x2="400" y2="380"/><line x1="450" y1="0" x2="450" y2="380"/><line x1="500" y1="0" x2="500" y2="380"/><line x1="550" y1="0" x2="550" y2="380"/><line x1="600" y1="0" x2="600" y2="380"/><line x1="650" y1="0" x2="650" y2="380"/><line x1="700" y1="0" x2="700" y2="380"/><line x1="0" y1="0" x2="700" y2="0"/><line x1="0" y1="50" x2="700" y2="50"/><line x1="0" y1="100" x2="700" y2="100"/><line x1="0" y1="150" x2="700" y2="150"/><line x1="0" y1="200" x2="700" y2="200"/><line x1="0" y1="250" x2="700" y2="250"/><line x1="0" y1="300" x2="700" y2="300"/><line x1="0" y1="350" x2="700" y2="350"/></g>
  <ellipse cx="105" cy="95" rx="120" ry="80" fill="#58a6ff" opacity="0.03"/>
  <ellipse cx="595" cy="285" rx="100" ry="70" fill="#a371f7" opacity="0.03"/>
  
    
    <g transform="translate(40, 60)">
      <rect width="180" height="130" rx="8" fill="#161b22" stroke="#30363d"/>
      <rect width="180" height="22" rx="8" fill="#21262d"/>
      <circle cx="12" cy="11" r="4" fill="#f85149" opacity="0.8"/><circle cx="26" cy="11" r="4" fill="#d29922" opacity="0.8"/><circle cx="40" cy="11" r="4" fill="#3fb950" opacity="0.8"/>
      <text x="90" y="15" text-anchor="middle" fill="#484f58" font-size="9" font-family="system-ui">main.ts</text>
      <text x="10" y="36" fill="#a371f7" font-size="10" font-family="monospace">describe("API", () =&gt; {</text><text x="10" y="50" fill="#f0f6fc" font-size="10" font-family="monospace">  it("returns 200", async</text><text x="10" y="64" fill="#f0f6fc" font-size="10" font-family="monospace">    () =&gt; {</text><text x="10" y="78" fill="#79c0ff" font-size="10" font-family="monospace">    expect(res.status)</text><text x="10" y="92" fill="#3fb950" font-size="10" font-family="monospace">      .toBe(200);</text><text x="10" y="106" fill="#f0f6fc" font-size="10" font-family="monospace">  });</text><text x="10" y="120" fill="#a371f7" font-size="10" font-family="monospace">});</text>
    </g>
    
  <g transform="translate(280, 100)">
    <circle r="25" fill="#3fb950" opacity="0.15"/>
    <path d="M-10,0 L-2.5,8.75 L10,-7.5" fill="none" stroke="#3fb950" stroke-width="3" stroke-linecap="round"/>
  </g>
    
  <g transform="translate(340, 130)">
    <circle r="25" fill="#3fb950" opacity="0.15"/>
    <path d="M-10,0 L-2.5,8.75 L10,-7.5" fill="none" stroke="#3fb950" stroke-width="3" stroke-linecap="round"/>
  </g>
    
  <g transform="translate(280, 160)">
    <circle r="25" fill="#3fb950" opacity="0.15"/>
    <path d="M-10,0 L-2.5,8.75 L10,-7.5" fill="none" stroke="#3fb950" stroke-width="3" stroke-linecap="round"/>
  </g>
    
  <g transform="translate(340, 190)">
    <circle r="25" fill="#3fb950" opacity="0.15"/>
    <path d="M-10,0 L-2.5,8.75 L10,-7.5" fill="none" stroke="#3fb950" stroke-width="3" stroke-linecap="round"/>
  </g>
    
  <g transform="translate(400, 145)">
    <circle r="25" fill="#f85149" opacity="0.15"/>
    <path d="M-7.5,-7.5 L7.5,7.5 M7.5,-7.5 L-7.5,7.5" fill="none" stroke="#f85149" stroke-width="3" stroke-linecap="round"/>
  </g>
    
    <g transform="translate(450, 60)">
      <rect width="200" height="130" rx="8" fill="#0d1117" stroke="#3fb950" stroke-width="1.5"/>
      <rect width="200" height="20" rx="8" fill="#3fb950" opacity="0.15"/>
      <text x="10" y="14" fill="#3fb950" font-size="10" font-family="monospace">terminal</text>
      <text x="10" y="34" fill="#f0f6fc" font-size="10" font-family="monospace">$ npm test</text><text x="10" y="48" fill="#f0f6fc" font-size="10" font-family="monospace"></text><text x="10" y="62" fill="#3fb950" font-size="10" font-family="monospace"> PASS  auth.test.ts</text><text x="10" y="76" fill="#3fb950" font-size="10" font-family="monospace"> PASS  api.test.ts</text><text x="10" y="90" fill="#f85149" font-size="10" font-family="monospace"> FAIL  edge.test.ts</text><text x="10" y="104" fill="#f0f6fc" font-size="10" font-family="monospace"></text><text x="10" y="118" fill="#d29922" font-size="10" font-family="monospace">Tests: 4 passed, 1 failed</text>
      <rect x="10" y="132" width="8" height="12" fill="#3fb950"><animate attributeName="opacity" values="1;0;1" dur="1s" repeatCount="indefinite"/></rect>
    </g>
    
    <g transform="translate(40, 220)">
      <rect width="90" height="55" rx="8" fill="#161b22" stroke="#30363d"/>
      <text x="10" y="18" fill="#8b949e" font-size="9" font-family="system-ui">Coverage</text>
      <text x="10" y="38" fill="#3fb950" font-size="18" font-weight="600" font-family="system-ui">87<tspan font-size="10" fill="#8b949e">%</tspan></text>
      <text x="75" y="38" fill="#3fb950" font-size="14">↑</text>
    </g>
    
    <g transform="translate(150, 220)">
      <rect width="90" height="55" rx="8" fill="#161b22" stroke="#30363d"/>
      <text x="10" y="18" fill="#8b949e" font-size="9" font-family="system-ui">Tests</text>
      <text x="10" y="38" fill="#58a6ff" font-size="18" font-weight="600" font-family="system-ui">142<tspan font-size="10" fill="#8b949e"></tspan></text>
      <text x="75" y="38" fill="#8b949e" font-size="14">→</text>
    </g>
    
    <g transform="translate(260, 220)">
      <rect width="90" height="55" rx="8" fill="#161b22" stroke="#30363d"/>
      <text x="10" y="18" fill="#8b949e" font-size="9" font-family="system-ui">Failed</text>
      <text x="10" y="38" fill="#f85149" font-size="18" font-weight="600" font-family="system-ui">1<tspan font-size="10" fill="#8b949e"></tspan></text>
      <text x="75" y="38" fill="#8b949e" font-size="14">→</text>
    </g>
    
  <g transform="translate(400, 220)">
    <rect width="120" height="8" rx="4" fill="#21262d"/>
    <rect width="104.4" height="8" rx="4" fill="#3fb950"/>
    <text x="128" y="7" fill="#8b949e" font-size="9">87%</text>
  </g>
    
    <g transform="translate(400, 250)">
      <circle r="12" fill="#d29922" opacity="0.2"/>
      <text x="0" y="4" text-anchor="middle" fill="#d29922" font-size="12">⚠</text>
      <text x="20" y="4" text-anchor="start" fill="#f0f6fc" font-size="10">1 test failing</text>
    </g>
    
    <g transform="translate(400, 275)">
      <circle r="12" fill="#58a6ff" opacity="0.2"/>
      <text x="0" y="4" text-anchor="middle" fill="#58a6ff" font-size="12">ℹ</text>
      <text x="20" y="4" text-anchor="start" fill="#f0f6fc" font-size="10">CI pipeline blocked</text>
    </g>
    <text x="350" y="340" text-anchor="middle" fill="#58a6ff" font-size="11" font-family="system-ui, -apple-system, sans-serif">Test Suite Results</text>
  
</svg>